<?xml version="1.0" encoding="UTF-8" standalone="no"?>
<!DOCTYPE svg PUBLIC "-//W3C//DTD SVG 1.1//EN"
 "http://www.w3.org/Graphics/SVG/1.1/DTD/svg11.dtd">
<!-- Generated by graphviz version 2.44.1 (20200629.0800)
 -->
<!-- Pages: 1 -->
<svg width="395pt" height="559pt"
 viewBox="0.00 0.00 394.50 559.00" xmlns="http://www.w3.org/2000/svg" xmlns:xlink="http://www.w3.org/1999/xlink">
<g id="graph0" class="graph" transform="scale(1 1) rotate(0) translate(4 555)">
<polygon fill="white" stroke="transparent" points="-4,4 -4,-555 390.5,-555 390.5,4 -4,4"/>
<!-- 1 -->
<g id="node1" class="node">
<title>1</title>
<polygon fill="none" stroke="blue" points="251,-551 197,-551 197,-515 251,-515 251,-551"/>
<text text-anchor="middle" x="224" y="-529.3" font-family="Times New Roman,serif" font-size="14.00">1: start</text>
</g>
<!-- 2 -->
<g id="node2" class="node">
<title>2</title>
<polygon fill="none" stroke="black" points="279.5,-479 168.5,-479 168.5,-443 279.5,-443 279.5,-479"/>
<text text-anchor="middle" x="224" y="-457.3" font-family="Times New Roman,serif" font-size="14.00">2: door is locked</text>
</g>
<!-- 1&#45;&gt;2 -->
<g id="edge1" class="edge">
<title>1&#45;&gt;2</title>
<path fill="none" stroke="black" d="M224,-514.7C224,-506.98 224,-497.71 224,-489.11"/>
<polygon fill="black" stroke="black" points="227.5,-489.1 224,-479.1 220.5,-489.1 227.5,-489.1"/>
</g>
<!-- 3 -->
<g id="node3" class="node">
<title>3</title>
<polygon fill="none" stroke="black" points="134,-407 0,-407 0,-371 134,-371 134,-407"/>
<text text-anchor="middle" x="67" y="-385.3" font-family="Times New Roman,serif" font-size="14.00">3: search above door</text>
</g>
<!-- 2&#45;&gt;3 -->
<g id="edge2" class="edge">
<title>2&#45;&gt;3</title>
<path fill="none" stroke="black" d="M185.59,-442.88C164.13,-433.31 137.2,-421.3 114.43,-411.15"/>
<polygon fill="black" stroke="black" points="115.84,-407.94 105.28,-407.07 112.99,-414.34 115.84,-407.94"/>
</g>
<!-- 4 -->
<g id="node4" class="node">
<title>4</title>
<polygon fill="none" stroke="black" points="295.5,-407 152.5,-407 152.5,-371 295.5,-371 295.5,-407"/>
<text text-anchor="middle" x="224" y="-385.3" font-family="Times New Roman,serif" font-size="14.00">4: search potted plants</text>
</g>
<!-- 2&#45;&gt;4 -->
<g id="edge3" class="edge">
<title>2&#45;&gt;4</title>
<path fill="none" stroke="black" d="M224,-442.7C224,-434.98 224,-425.71 224,-417.11"/>
<polygon fill="black" stroke="black" points="227.5,-417.1 224,-407.1 220.5,-417.1 227.5,-417.1"/>
</g>
<!-- 5 -->
<g id="node5" class="node">
<title>5</title>
<polygon fill="none" stroke="black" points="386.5,-335 261.5,-335 261.5,-288 386.5,-288 386.5,-335"/>
<text text-anchor="start" x="269.5" y="-320.8" font-family="Times New Roman,serif" font-size="14.00">5: search loose tiles</text>
<text text-anchor="start" x="289" y="-306.8" font-family="Times New Roman,serif" font-size="14.00">you find key</text>
<text text-anchor="start" x="286.5" y="-295.2" font-family="monospace" font-size="11.00" fill="steelblue">+ house key</text>
</g>
<!-- 2&#45;&gt;5 -->
<g id="edge4" class="edge">
<title>2&#45;&gt;5</title>
<path fill="none" stroke="black" d="M261.91,-442.97C277.18,-434.29 293.6,-422.29 304,-407 316.25,-388.98 321.22,-364.91 323.14,-345.57"/>
<polygon fill="black" stroke="black" points="326.65,-345.62 323.92,-335.38 319.67,-345.08 326.65,-345.62"/>
</g>
<!-- 6 -->
<g id="node6" class="node">
<title>6</title>
<polygon fill="none" stroke="black" points="243.5,-329.5 130.5,-329.5 130.5,-293.5 243.5,-293.5 243.5,-329.5"/>
<text text-anchor="start" x="138.5" y="-313.8" font-family="Times New Roman,serif" font-size="14.00">6: alicia finds key</text>
<text text-anchor="start" x="149.5" y="-302.2" font-family="monospace" font-size="11.00" fill="steelblue">+ house key</text>
</g>
<!-- 3&#45;&gt;6 -->
<g id="edge5" class="edge">
<title>3&#45;&gt;6</title>
<path fill="none" stroke="black" d="M94.23,-370.87C111.11,-360.25 132.97,-346.49 151.24,-335"/>
<polygon fill="black" stroke="black" points="153.28,-337.85 159.88,-329.56 149.55,-331.93 153.28,-337.85"/>
</g>
<!-- 4&#45;&gt;6 -->
<g id="edge6" class="edge">
<title>4&#45;&gt;6</title>
<path fill="none" stroke="black" d="M215.6,-370.87C210.97,-361.41 205.11,-349.46 199.91,-338.83"/>
<polygon fill="black" stroke="black" points="202.91,-337 195.36,-329.56 196.62,-340.08 202.91,-337"/>
</g>
<!-- 7 -->
<g id="node7" class="node">
<title>7</title>
<polygon fill="none" stroke="black" points="300.5,-252 209.5,-252 209.5,-216 300.5,-216 300.5,-252"/>
<text text-anchor="start" x="221" y="-236.3" font-family="Times New Roman,serif" font-size="14.00">7: loose end</text>
<text text-anchor="start" x="217.5" y="-224.7" font-family="monospace" font-size="11.00" fill="tomato">&#45; house key</text>
</g>
<!-- 5&#45;&gt;7 -->
<g id="edge7" class="edge">
<title>5&#45;&gt;7</title>
<path fill="none" stroke="black" d="M303.3,-287.85C295.19,-278.98 285.87,-268.78 277.59,-259.72"/>
<polygon fill="black" stroke="black" points="279.97,-257.13 270.64,-252.11 274.8,-261.86 279.97,-257.13"/>
</g>
<!-- 6&#45;&gt;7 -->
<g id="edge8" class="edge">
<title>6&#45;&gt;7</title>
<path fill="none" stroke="black" d="M202.43,-293.37C211.39,-283.43 222.82,-270.73 232.74,-259.72"/>
<polygon fill="black" stroke="black" points="235.54,-261.84 239.63,-252.06 230.34,-257.15 235.54,-261.84"/>
</g>
<!-- 8 -->
<g id="node8" class="node">
<title>8</title>
<polygon fill="none" stroke="black" points="312,-180 198,-180 198,-144 312,-144 312,-180"/>
<text text-anchor="middle" x="255" y="-158.3" font-family="Times New Roman,serif" font-size="14.00">8: enter the house</text>
</g>
<!-- 7&#45;&gt;8 -->
<g id="edge9" class="edge">
<title>7&#45;&gt;8</title>
<path fill="none" stroke="black" d="M255,-215.7C255,-207.98 255,-198.71 255,-190.11"/>
<polygon fill="black" stroke="black" points="258.5,-190.1 255,-180.1 251.5,-190.1 258.5,-190.1"/>
</g>
<!-- 9 -->
<g id="node9" class="node">
<title>9</title>
<polygon fill="none" stroke="red" points="240,-108 186,-108 186,-72 240,-72 240,-108"/>
<text text-anchor="middle" x="213" y="-86.3" font-family="Times New Roman,serif" font-size="14.00">9: trap</text>
</g>
<!-- 8&#45;&gt;9 -->
<g id="edge10" class="edge">
<title>8&#45;&gt;9</title>
<path fill="none" stroke="black" d="M244.62,-143.7C239.74,-135.56 233.81,-125.69 228.42,-116.7"/>
<polygon fill="black" stroke="black" points="231.41,-114.88 223.26,-108.1 225.41,-118.48 231.41,-114.88"/>
</g>
<!-- 10 -->
<g id="node10" class="node">
<title>10</title>
<polygon fill="none" stroke="black" points="338,-108 258,-108 258,-72 338,-72 338,-108"/>
<text text-anchor="middle" x="298" y="-86.3" font-family="Times New Roman,serif" font-size="14.00">10: treasure</text>
</g>
<!-- 8&#45;&gt;10 -->
<g id="edge11" class="edge">
<title>8&#45;&gt;10</title>
<path fill="none" stroke="black" d="M265.63,-143.7C270.63,-135.56 276.69,-125.69 282.21,-116.7"/>
<polygon fill="black" stroke="black" points="285.24,-118.46 287.49,-108.1 279.28,-114.79 285.24,-118.46"/>
</g>
<!-- epilogue -->
<g id="node11" class="node">
<title>epilogue</title>
<polygon fill="none" stroke="goldenrod" points="359.5,-36 236.5,-36 236.5,0 359.5,0 359.5,-36"/>
<text text-anchor="middle" x="298" y="-14.3" font-family="Times New Roman,serif" font-size="14.00">epilogue: good end</text>
</g>
<!-- 10&#45;&gt;epilogue -->
<g id="edge12" class="edge">
<title>10&#45;&gt;epilogue</title>
<path fill="none" stroke="black" d="M298,-71.7C298,-63.98 298,-54.71 298,-46.11"/>
<polygon fill="black" stroke="black" points="301.5,-46.1 298,-36.1 294.5,-46.1 301.5,-46.1"/>
</g>
</g>
</svg>
